<svg width="57" height="57" viewBox="0 0 57 57" fill="none" xmlns="http://www.w3.org/2000/svg">
<circle cx="28.791" cy="28.5642" r="28" fill="#7EB693"/>
<path d="M40.4692 36.4563L35.7086 31.6957C36.8547 30.1699 37.4734 28.3127 37.4713 26.4044C37.4713 21.53 33.5056 17.5642 28.6312 17.5642C23.7567 17.5642 19.791 21.53 19.791 26.4044C19.791 31.2788 23.7567 35.2446 28.6312 35.2446C30.5395 35.2466 32.3967 34.6279 33.9225 33.4818L38.6831 38.2424C38.9241 38.4578 39.2384 38.5728 39.5615 38.5637C39.8846 38.5547 40.192 38.4223 40.4205 38.1938C40.6491 37.9652 40.7815 37.6578 40.7905 37.3347C40.7996 37.0116 40.6846 36.6973 40.4692 36.4563ZM22.3168 26.4044C22.3168 25.1555 22.6871 23.9347 23.3809 22.8963C24.0748 21.8579 25.061 21.0486 26.2148 20.5707C27.3686 20.0927 28.6382 19.9677 29.8631 20.2113C31.0879 20.455 32.213 21.0564 33.0961 21.9394C33.9792 22.8225 34.5806 23.9476 34.8242 25.1725C35.0679 26.3974 34.9428 27.667 34.4649 28.8208C33.987 29.9746 33.1777 30.9608 32.1393 31.6546C31.1009 32.3485 29.88 32.7188 28.6312 32.7188C26.9571 32.7168 25.3522 32.0509 24.1684 30.8671C22.9847 29.6834 22.3188 28.0785 22.3168 26.4044Z" fill="#FAFAFA"/>
</svg>
