<svg width="554" height="67" viewBox="0 0 554 67" fill="none" xmlns="http://www.w3.org/2000/svg">
<rect x="0.791016" y="0.564236" width="376" height="66" rx="33" fill="#FAFAFA"/>
<circle cx="342.791" cy="33.5642" r="28" fill="#7EB693"/>
<path d="M354.469 41.4563L349.709 36.6957C350.855 35.1699 351.473 33.3127 351.471 31.4044C351.471 26.53 347.506 22.5642 342.631 22.5642C337.757 22.5642 333.791 26.53 333.791 31.4044C333.791 36.2788 337.757 40.2446 342.631 40.2446C344.539 40.2466 346.397 39.6279 347.923 38.4818L352.683 43.2424C352.924 43.4578 353.238 43.5728 353.561 43.5637C353.885 43.5547 354.192 43.4223 354.421 43.1938C354.649 42.9652 354.781 42.6578 354.791 42.3347C354.8 42.0116 354.685 41.6973 354.469 41.4563ZM336.317 31.4044C336.317 30.1555 336.687 28.9347 337.381 27.8963C338.075 26.8579 339.061 26.0486 340.215 25.5707C341.369 25.0927 342.638 24.9677 343.863 25.2113C345.088 25.455 346.213 26.0564 347.096 26.9394C347.979 27.8225 348.581 28.9476 348.824 30.1725C349.068 31.3974 348.943 32.667 348.465 33.8208C347.987 34.9746 347.178 35.9608 346.139 36.6546C345.101 37.3485 343.88 37.7188 342.631 37.7188C340.957 37.7168 339.352 37.0509 338.168 35.8671C336.985 34.6834 336.319 33.0785 336.317 31.4044Z" fill="#FAFAFA"/>
<rect x="395.291" y="1.06424" width="158" height="65" rx="32.5" stroke="#E0E0E0"/>
<path d="M477.501 34.3543H479.918C479.854 35.2097 479.616 35.9685 479.206 36.6306C478.796 37.2869 478.225 37.8025 477.492 38.1775C476.76 38.5525 475.872 38.74 474.829 38.74C474.026 38.74 473.303 38.5994 472.658 38.3181C472.02 38.031 471.472 37.6238 471.015 37.0965C470.563 36.5633 470.218 35.9246 469.978 35.1804C469.737 34.4304 469.617 33.5896 469.617 32.658V31.6824C469.617 30.7508 469.74 29.9099 469.986 29.1599C470.232 28.4099 470.584 27.7713 471.041 27.2439C471.504 26.7107 472.058 26.3006 472.702 26.0135C473.353 25.7263 474.079 25.5828 474.882 25.5828C475.925 25.5828 476.807 25.7761 477.527 26.1629C478.248 26.5437 478.808 27.0681 479.206 27.7361C479.604 28.4041 479.845 29.1717 479.927 30.0388H477.51C477.463 29.4998 477.346 29.0428 477.158 28.6678C476.977 28.2928 476.701 28.0086 476.332 27.8152C475.969 27.616 475.485 27.5164 474.882 27.5164C474.413 27.5164 474 27.6043 473.643 27.7801C473.291 27.9558 472.998 28.2195 472.764 28.5711C472.529 28.9168 472.354 29.3504 472.236 29.8719C472.119 30.3875 472.061 30.9851 472.061 31.6648V32.658C472.061 33.3084 472.113 33.8914 472.219 34.407C472.324 34.9226 472.488 35.3592 472.711 35.7166C472.934 36.074 473.221 36.3465 473.572 36.534C473.924 36.7215 474.343 36.8152 474.829 36.8152C475.421 36.8152 475.901 36.7215 476.271 36.534C476.646 36.3465 476.93 36.0711 477.123 35.7078C477.322 35.3445 477.448 34.8933 477.501 34.3543ZM486.853 36.5428V32.157C486.853 31.8347 486.797 31.5564 486.686 31.322C486.574 31.0877 486.404 30.906 486.176 30.7771C485.947 30.6482 485.657 30.5838 485.306 30.5838C484.995 30.5838 484.723 30.6365 484.488 30.742C484.26 30.8474 484.084 30.9969 483.961 31.1902C483.838 31.3777 483.776 31.5945 483.776 31.8406H481.447C481.447 31.448 481.541 31.076 481.729 30.7244C481.916 30.367 482.183 30.0506 482.528 29.7752C482.88 29.4939 483.299 29.2742 483.785 29.116C484.277 28.9578 484.828 28.8787 485.438 28.8787C486.158 28.8787 486.8 29.0017 487.362 29.2478C487.931 29.4881 488.376 29.8513 488.698 30.3377C489.026 30.824 489.19 31.4363 489.19 32.1746V36.323C489.19 36.7976 489.22 37.2049 489.278 37.5447C489.343 37.8787 489.437 38.1687 489.56 38.4148V38.5642H487.195C487.084 38.324 486.999 38.0193 486.94 37.6502C486.882 37.2752 486.853 36.906 486.853 36.5428ZM487.178 32.7722L487.195 34.1521H485.728C485.364 34.1521 485.045 34.1902 484.77 34.2664C484.494 34.3367 484.269 34.4422 484.093 34.5828C483.917 34.7176 483.785 34.8816 483.697 35.075C483.609 35.2625 483.565 35.4763 483.565 35.7166C483.565 35.951 483.618 36.1619 483.724 36.3494C483.835 36.5369 483.993 36.6863 484.198 36.7976C484.409 36.9031 484.655 36.9558 484.937 36.9558C485.347 36.9558 485.704 36.8738 486.009 36.7097C486.313 36.5398 486.551 36.3347 486.721 36.0945C486.891 35.8543 486.981 35.6258 486.993 35.409L487.661 36.4109C487.579 36.6511 487.456 36.906 487.292 37.1756C487.128 37.4451 486.917 37.697 486.659 37.9314C486.401 38.1658 486.091 38.3592 485.728 38.5115C485.364 38.6638 484.942 38.74 484.462 38.74C483.847 38.74 483.296 38.617 482.81 38.3709C482.323 38.1248 481.939 37.7879 481.658 37.3601C481.377 36.9324 481.236 36.4461 481.236 35.9011C481.236 35.3972 481.33 34.9519 481.518 34.5652C481.705 34.1785 481.983 33.8533 482.353 33.5896C482.722 33.3201 483.179 33.1179 483.724 32.9832C484.274 32.8426 484.904 32.7722 485.613 32.7722H487.178ZM493.603 30.9969V38.5642H491.282V29.0545H493.479L493.603 30.9969ZM496.494 28.9929L496.459 31.1551C496.33 31.1316 496.184 31.114 496.02 31.1023C495.861 31.0906 495.712 31.0847 495.571 31.0847C495.214 31.0847 494.9 31.1345 494.631 31.2342C494.361 31.3279 494.136 31.4656 493.954 31.6472C493.778 31.8289 493.644 32.0515 493.55 32.3152C493.456 32.573 493.403 32.866 493.392 33.1941L492.891 33.1326C492.891 32.5291 492.952 31.9695 493.075 31.4539C493.198 30.9383 493.377 30.4871 493.611 30.1004C493.846 29.7136 494.139 29.4148 494.49 29.2039C494.848 28.9871 495.258 28.8787 495.721 28.8787C495.85 28.8787 495.987 28.8904 496.134 28.9138C496.286 28.9314 496.406 28.9578 496.494 28.9929ZM502.708 29.0545V30.7244H497.259V29.0545H502.708ZM498.718 26.7166H501.047V35.822C501.047 36.1033 501.085 36.3201 501.161 36.4724C501.237 36.6248 501.352 36.7273 501.504 36.7801C501.656 36.8328 501.838 36.8592 502.049 36.8592C502.201 36.8592 502.342 36.8504 502.471 36.8328C502.6 36.8152 502.708 36.7976 502.796 36.7801L502.805 38.5203C502.611 38.5847 502.392 38.6375 502.146 38.6785C501.905 38.7195 501.633 38.74 501.328 38.74C500.807 38.74 500.35 38.6521 499.957 38.4763C499.564 38.2947 499.26 38.0047 499.043 37.6062C498.826 37.2019 498.718 36.6687 498.718 36.0066V26.7166ZM508.808 33.5281V33.3611C508.808 32.1189 508.939 30.991 509.203 29.9773C509.473 28.9578 509.824 28.0642 510.258 27.2967C510.691 26.5291 511.16 25.8933 511.664 25.3894C512.174 24.8797 512.669 24.5135 513.149 24.2908L513.606 25.5652C513.272 25.8172 512.938 26.1629 512.604 26.6023C512.276 27.0359 511.978 27.572 511.708 28.2107C511.438 28.8494 511.222 29.5935 511.058 30.4431C510.899 31.2928 510.82 32.2595 510.82 33.3435V33.5457C510.82 34.6297 510.899 35.5994 511.058 36.4549C511.222 37.3045 511.438 38.0486 511.708 38.6873C511.978 39.326 512.276 39.8679 512.604 40.3133C512.938 40.7586 513.272 41.1101 513.606 41.3679L513.149 42.6072C512.669 42.3787 512.174 42.0125 511.664 41.5086C511.16 41.0047 510.691 40.3689 510.258 39.6013C509.824 38.8338 509.473 37.9431 509.203 36.9295C508.939 35.9099 508.808 34.7761 508.808 33.5281ZM523.345 31.0672V33.2205C523.345 34.2049 523.245 35.0457 523.046 35.7429C522.847 36.4402 522.56 37.0115 522.185 37.4568C521.81 37.8963 521.361 38.2215 520.84 38.4324C520.318 38.6375 519.738 38.74 519.1 38.74C518.59 38.74 518.115 38.6756 517.676 38.5467C517.236 38.4119 516.841 38.2068 516.489 37.9314C516.144 37.6502 515.845 37.2928 515.593 36.8592C515.347 36.4256 515.156 35.907 515.021 35.3035C514.893 34.7 514.828 34.0056 514.828 33.2205V31.0672C514.828 30.0828 514.928 29.2449 515.127 28.5535C515.332 27.8621 515.622 27.2967 515.997 26.8572C516.372 26.4178 516.82 26.0984 517.342 25.8992C517.863 25.6941 518.443 25.5916 519.082 25.5916C519.598 25.5916 520.072 25.656 520.506 25.7849C520.945 25.9138 521.338 26.116 521.684 26.3914C522.035 26.6609 522.334 27.0125 522.58 27.4461C522.826 27.8738 523.014 28.3894 523.143 28.9929C523.277 29.5906 523.345 30.282 523.345 31.0672ZM521.024 33.5369V30.742C521.024 30.2498 520.995 29.822 520.937 29.4588C520.884 29.0896 520.805 28.7761 520.699 28.5183C520.594 28.2605 520.462 28.0525 520.304 27.8943C520.146 27.7303 519.964 27.6101 519.759 27.534C519.554 27.4578 519.328 27.4197 519.082 27.4197C518.777 27.4197 518.505 27.4812 518.265 27.6043C518.024 27.7215 517.822 27.909 517.658 28.1668C517.494 28.4246 517.368 28.7674 517.28 29.1951C517.198 29.617 517.157 30.1326 517.157 30.742V33.5369C517.157 34.0291 517.184 34.4597 517.236 34.8289C517.295 35.198 517.377 35.5144 517.482 35.7781C517.594 36.0418 517.726 36.2586 517.878 36.4285C518.036 36.5926 518.218 36.7156 518.423 36.7976C518.628 36.8738 518.854 36.9119 519.1 36.9119C519.41 36.9119 519.683 36.8504 519.917 36.7273C520.157 36.6043 520.359 36.4109 520.523 36.1472C520.688 35.8777 520.811 35.5291 520.893 35.1013C520.98 34.6678 521.024 34.1463 521.024 33.5369ZM529.488 33.3611V33.5281C529.488 34.7469 529.351 35.8631 529.075 36.8767C528.806 37.8904 528.448 38.784 528.003 39.5574C527.563 40.3308 527.083 40.9754 526.562 41.491C526.046 42.0066 525.539 42.3787 525.041 42.6072L524.584 41.3679C524.918 41.116 525.249 40.7703 525.577 40.3308C525.905 39.8914 526.204 39.3494 526.474 38.7049C526.749 38.0603 526.966 37.3103 527.124 36.4549C527.288 35.5994 527.37 34.6297 527.37 33.5457V33.3435C527.37 32.2595 527.285 31.2898 527.115 30.4344C526.951 29.5789 526.731 28.8318 526.456 28.1931C526.181 27.5486 525.879 27.0066 525.551 26.5672C525.223 26.1219 524.9 25.7761 524.584 25.5301L525.041 24.2908C525.539 24.5135 526.046 24.8855 526.562 25.407C527.083 25.9226 527.563 26.5701 528.003 27.3494C528.448 28.1228 528.806 29.0164 529.075 30.0301C529.351 31.0379 529.488 32.1482 529.488 33.3611Z" fill="#274C5B"/>
<circle cx="428.791" cy="33.5642" r="28" fill="#274C5B"/>
<path d="M425.569 44.5643C426.244 44.5643 426.791 44.0171 426.791 43.3421C426.791 42.6671 426.244 42.1199 425.569 42.1199C424.894 42.1199 424.347 42.6671 424.347 43.3421C424.347 44.0171 424.894 44.5643 425.569 44.5643Z" fill="white" stroke="white" stroke-width="1.5" stroke-linecap="round" stroke-linejoin="round"/>
<path d="M434.125 44.5643C434.8 44.5643 435.347 44.0171 435.347 43.3421C435.347 42.6671 434.8 42.1199 434.125 42.1199C433.45 42.1199 432.902 42.6671 432.902 43.3421C432.902 44.0171 433.45 44.5643 434.125 44.5643Z" fill="white" stroke="white" stroke-width="1.5" stroke-linecap="round" stroke-linejoin="round"/>
<path d="M415.791 22.5642H419.573L422.409 38.6373H437.537" stroke="white" stroke-width="2" stroke-linecap="round" stroke-linejoin="round"/>
<path d="M421.902 34.7479L437.149 34.8549C437.259 34.855 437.365 34.8172 437.449 34.7479C437.534 34.6786 437.592 34.5822 437.613 34.475L439.315 25.9657C439.329 25.8971 439.327 25.8263 439.31 25.7584C439.293 25.6905 439.261 25.6272 439.217 25.5731C439.173 25.519 439.117 25.4754 439.054 25.4455C438.99 25.4156 438.921 25.4001 438.851 25.4002L420.358 25.4002" stroke="white" stroke-width="2" stroke-linecap="round" stroke-linejoin="round"/>
</svg>
